<mxfile host="app.diagrams.net" modified="2023-05-16T11:56:26.601Z" agent="Mozilla/5.0 (X11; Linux x86_64) AppleWebKit/537.36 (KHTML, like Gecko) Chrome/112.0.0.0 Safari/537.36" etag="6erAKAEOOn-59q0iTSMQ" version="21.2.9" type="device">
  <diagram name="Page-1" id="InTcQ6ej8jY9gNlBsr7f">
    <mxGraphModel dx="3300" dy="2578" grid="1" gridSize="10" guides="1" tooltips="1" connect="1" arrows="1" fold="1" page="1" pageScale="1" pageWidth="827" pageHeight="1169" math="0" shadow="0">
      <root>
        <mxCell id="0" />
        <mxCell id="1" parent="0" />
        <mxCell id="Zgq0WJwzbyDcNf6zJyFv-80" value="" style="group" vertex="1" connectable="0" parent="1">
          <mxGeometry x="80" y="-320" width="600" height="210" as="geometry" />
        </mxCell>
        <mxCell id="Zgq0WJwzbyDcNf6zJyFv-35" value="" style="rounded=0;whiteSpace=wrap;html=1;strokeColor=#23445d;fillColor=#bac8d3;" vertex="1" parent="Zgq0WJwzbyDcNf6zJyFv-80">
          <mxGeometry y="20" width="600" height="190" as="geometry" />
        </mxCell>
        <mxCell id="Zgq0WJwzbyDcNf6zJyFv-37" value="Infra" style="text;html=1;align=center;verticalAlign=middle;resizable=0;points=[];autosize=1;strokeColor=none;fillColor=none;" vertex="1" parent="Zgq0WJwzbyDcNf6zJyFv-80">
          <mxGeometry x="550" width="50" height="30" as="geometry" />
        </mxCell>
        <mxCell id="Zgq0WJwzbyDcNf6zJyFv-81" value="" style="group" vertex="1" connectable="0" parent="1">
          <mxGeometry x="800" y="-40" width="177" height="300" as="geometry" />
        </mxCell>
        <mxCell id="Zgq0WJwzbyDcNf6zJyFv-25" value="" style="rounded=0;whiteSpace=wrap;html=1;fillColor=#f8cecc;strokeColor=#b85450;" vertex="1" parent="Zgq0WJwzbyDcNf6zJyFv-81">
          <mxGeometry y="25" width="177" height="275" as="geometry" />
        </mxCell>
        <mxCell id="Zgq0WJwzbyDcNf6zJyFv-26" value="Domain" style="text;html=1;align=center;verticalAlign=middle;resizable=0;points=[];autosize=1;strokeColor=none;fillColor=none;" vertex="1" parent="Zgq0WJwzbyDcNf6zJyFv-81">
          <mxGeometry x="117" width="60" height="30" as="geometry" />
        </mxCell>
        <mxCell id="Zgq0WJwzbyDcNf6zJyFv-24" value="AddAccount" style="rounded=1;whiteSpace=wrap;html=1;dashed=1;strokeColor=#FF0000;shadow=1;strokeWidth=2;" vertex="1" parent="Zgq0WJwzbyDcNf6zJyFv-81">
          <mxGeometry x="28.5" y="130" width="120" height="60" as="geometry" />
        </mxCell>
        <mxCell id="Zgq0WJwzbyDcNf6zJyFv-82" value="" style="group" vertex="1" connectable="0" parent="1">
          <mxGeometry x="130" y="-105" width="495" height="225" as="geometry" />
        </mxCell>
        <mxCell id="Zgq0WJwzbyDcNf6zJyFv-28" value="" style="rounded=0;whiteSpace=wrap;html=1;fillColor=#fff2cc;strokeColor=#d6b656;" vertex="1" parent="Zgq0WJwzbyDcNf6zJyFv-82">
          <mxGeometry y="25" width="490" height="200" as="geometry" />
        </mxCell>
        <mxCell id="Zgq0WJwzbyDcNf6zJyFv-29" value="Data" style="text;html=1;align=center;verticalAlign=middle;resizable=0;points=[];autosize=1;strokeColor=none;fillColor=none;" vertex="1" parent="Zgq0WJwzbyDcNf6zJyFv-82">
          <mxGeometry x="445" width="50" height="30" as="geometry" />
        </mxCell>
        <mxCell id="Zgq0WJwzbyDcNf6zJyFv-83" value="" style="group" vertex="1" connectable="0" parent="1">
          <mxGeometry x="130" y="130" width="490" height="230" as="geometry" />
        </mxCell>
        <mxCell id="Zgq0WJwzbyDcNf6zJyFv-4" value="" style="rounded=0;whiteSpace=wrap;html=1;fillColor=#d5e8d4;strokeColor=#82b366;" vertex="1" parent="Zgq0WJwzbyDcNf6zJyFv-83">
          <mxGeometry y="30" width="490" height="200" as="geometry" />
        </mxCell>
        <mxCell id="Zgq0WJwzbyDcNf6zJyFv-5" value="Presentation" style="text;html=1;align=center;verticalAlign=middle;resizable=0;points=[];autosize=1;strokeColor=none;fillColor=none;" vertex="1" parent="Zgq0WJwzbyDcNf6zJyFv-83">
          <mxGeometry x="400" width="90" height="30" as="geometry" />
        </mxCell>
        <mxCell id="Zgq0WJwzbyDcNf6zJyFv-87" value="" style="group" vertex="1" connectable="0" parent="1">
          <mxGeometry x="-170" y="-75" width="236.5" height="445" as="geometry" />
        </mxCell>
        <mxCell id="Zgq0WJwzbyDcNf6zJyFv-52" value="" style="rounded=0;whiteSpace=wrap;html=1;fillColor=#dae8fc;strokeColor=#6c8ebf;" vertex="1" parent="Zgq0WJwzbyDcNf6zJyFv-87">
          <mxGeometry y="30" width="236.5" height="415" as="geometry" />
        </mxCell>
        <mxCell id="Zgq0WJwzbyDcNf6zJyFv-53" value="Main" style="text;html=1;align=center;verticalAlign=middle;resizable=0;points=[];autosize=1;strokeColor=none;fillColor=none;" vertex="1" parent="Zgq0WJwzbyDcNf6zJyFv-87">
          <mxGeometry x="186.5" width="50" height="30" as="geometry" />
        </mxCell>
        <mxCell id="Zgq0WJwzbyDcNf6zJyFv-84" value="" style="group" vertex="1" connectable="0" parent="1">
          <mxGeometry x="-140.5" y="431" width="177" height="130" as="geometry" />
        </mxCell>
        <mxCell id="Zgq0WJwzbyDcNf6zJyFv-22" value="" style="rounded=0;whiteSpace=wrap;html=1;fillColor=#b0e3e6;strokeColor=#0e8088;" vertex="1" parent="Zgq0WJwzbyDcNf6zJyFv-84">
          <mxGeometry y="30" width="177" height="100" as="geometry" />
        </mxCell>
        <mxCell id="Zgq0WJwzbyDcNf6zJyFv-23" value="Utils" style="text;html=1;align=center;verticalAlign=middle;resizable=0;points=[];autosize=1;strokeColor=none;fillColor=none;" vertex="1" parent="Zgq0WJwzbyDcNf6zJyFv-84">
          <mxGeometry x="127" width="50" height="30" as="geometry" />
        </mxCell>
        <mxCell id="Zgq0WJwzbyDcNf6zJyFv-54" style="edgeStyle=orthogonalEdgeStyle;rounded=0;orthogonalLoop=1;jettySize=auto;html=1;entryX=0.5;entryY=0;entryDx=0;entryDy=0;strokeColor=#0000FF;" edge="1" parent="1" source="Zgq0WJwzbyDcNf6zJyFv-52" target="Zgq0WJwzbyDcNf6zJyFv-22">
          <mxGeometry relative="1" as="geometry" />
        </mxCell>
        <mxCell id="Zgq0WJwzbyDcNf6zJyFv-58" style="edgeStyle=orthogonalEdgeStyle;rounded=0;orthogonalLoop=1;jettySize=auto;html=1;entryX=0;entryY=0.75;entryDx=0;entryDy=0;exitX=0.5;exitY=0;exitDx=0;exitDy=0;strokeColor=#0000FF;" edge="1" parent="1" source="Zgq0WJwzbyDcNf6zJyFv-52" target="Zgq0WJwzbyDcNf6zJyFv-35">
          <mxGeometry relative="1" as="geometry" />
        </mxCell>
        <mxCell id="Zgq0WJwzbyDcNf6zJyFv-63" style="edgeStyle=orthogonalEdgeStyle;rounded=0;orthogonalLoop=1;jettySize=auto;html=1;entryX=0;entryY=0.5;entryDx=0;entryDy=0;exitX=1;exitY=0.25;exitDx=0;exitDy=0;strokeColor=#0000FF;" edge="1" parent="1" source="Zgq0WJwzbyDcNf6zJyFv-52" target="Zgq0WJwzbyDcNf6zJyFv-28">
          <mxGeometry relative="1" as="geometry" />
        </mxCell>
        <mxCell id="Zgq0WJwzbyDcNf6zJyFv-55" style="edgeStyle=orthogonalEdgeStyle;rounded=0;orthogonalLoop=1;jettySize=auto;html=1;entryX=0;entryY=0.5;entryDx=0;entryDy=0;strokeColor=#007FFF;" edge="1" parent="1" source="Zgq0WJwzbyDcNf6zJyFv-22" target="Zgq0WJwzbyDcNf6zJyFv-18">
          <mxGeometry relative="1" as="geometry">
            <Array as="points">
              <mxPoint x="140" y="511" />
              <mxPoint x="140" y="210" />
            </Array>
          </mxGeometry>
        </mxCell>
        <mxCell id="Zgq0WJwzbyDcNf6zJyFv-10" value="" style="edgeStyle=orthogonalEdgeStyle;rounded=0;orthogonalLoop=1;jettySize=auto;html=1;strokeColor=#00CC00;" edge="1" parent="1" source="F4nUvJOktsHatZKrtvTg-1" target="Zgq0WJwzbyDcNf6zJyFv-6">
          <mxGeometry relative="1" as="geometry" />
        </mxCell>
        <mxCell id="Zgq0WJwzbyDcNf6zJyFv-19" style="edgeStyle=orthogonalEdgeStyle;rounded=0;orthogonalLoop=1;jettySize=auto;html=1;entryX=1;entryY=0.5;entryDx=0;entryDy=0;strokeColor=#00CC00;" edge="1" parent="1" source="F4nUvJOktsHatZKrtvTg-1" target="Zgq0WJwzbyDcNf6zJyFv-18">
          <mxGeometry relative="1" as="geometry" />
        </mxCell>
        <mxCell id="Zgq0WJwzbyDcNf6zJyFv-27" style="edgeStyle=orthogonalEdgeStyle;rounded=0;orthogonalLoop=1;jettySize=auto;html=1;entryX=0.5;entryY=1;entryDx=0;entryDy=0;exitX=1;exitY=0;exitDx=0;exitDy=0;strokeColor=#00CC00;" edge="1" parent="1" source="F4nUvJOktsHatZKrtvTg-1" target="Zgq0WJwzbyDcNf6zJyFv-24">
          <mxGeometry relative="1" as="geometry">
            <Array as="points">
              <mxPoint x="889" y="180" />
            </Array>
          </mxGeometry>
        </mxCell>
        <mxCell id="Zgq0WJwzbyDcNf6zJyFv-70" style="edgeStyle=orthogonalEdgeStyle;rounded=0;orthogonalLoop=1;jettySize=auto;html=1;entryX=0.5;entryY=0;entryDx=0;entryDy=0;strokeColor=#00CC00;" edge="1" parent="1" source="F4nUvJOktsHatZKrtvTg-1" target="Zgq0WJwzbyDcNf6zJyFv-69">
          <mxGeometry relative="1" as="geometry" />
        </mxCell>
        <mxCell id="Zgq0WJwzbyDcNf6zJyFv-72" style="edgeStyle=orthogonalEdgeStyle;rounded=0;orthogonalLoop=1;jettySize=auto;html=1;entryX=1;entryY=0;entryDx=0;entryDy=0;exitX=0.25;exitY=1;exitDx=0;exitDy=0;strokeColor=#00CC00;" edge="1" parent="1" source="F4nUvJOktsHatZKrtvTg-1" target="Zgq0WJwzbyDcNf6zJyFv-71">
          <mxGeometry relative="1" as="geometry">
            <Array as="points">
              <mxPoint x="350" y="250" />
              <mxPoint x="280" y="250" />
            </Array>
          </mxGeometry>
        </mxCell>
        <mxCell id="F4nUvJOktsHatZKrtvTg-1" value="SignUpController" style="rounded=0;whiteSpace=wrap;html=1;strokeColor=#CCFFCC;shadow=1;strokeWidth=2;" parent="1" vertex="1">
          <mxGeometry x="320" y="180" width="120" height="60" as="geometry" />
        </mxCell>
        <mxCell id="F4nUvJOktsHatZKrtvTg-3" value="Express" style="rounded=0;whiteSpace=wrap;html=1;strokeColor=#3333FF;strokeWidth=2;shadow=1;" parent="1" vertex="1">
          <mxGeometry x="-350" y="80" width="120" height="60" as="geometry" />
        </mxCell>
        <mxCell id="Zgq0WJwzbyDcNf6zJyFv-11" style="edgeStyle=orthogonalEdgeStyle;rounded=0;orthogonalLoop=1;jettySize=auto;html=1;entryX=0;entryY=0.5;entryDx=0;entryDy=0;exitX=1;exitY=0.5;exitDx=0;exitDy=0;strokeColor=#0000FF;" edge="1" parent="1" source="Zgq0WJwzbyDcNf6zJyFv-52" target="Zgq0WJwzbyDcNf6zJyFv-4">
          <mxGeometry relative="1" as="geometry">
            <Array as="points">
              <mxPoint x="67" y="160" />
              <mxPoint x="90" y="160" />
              <mxPoint x="90" y="260" />
            </Array>
          </mxGeometry>
        </mxCell>
        <mxCell id="Zgq0WJwzbyDcNf6zJyFv-12" style="edgeStyle=orthogonalEdgeStyle;rounded=0;orthogonalLoop=1;jettySize=auto;html=1;entryX=1;entryY=0.5;entryDx=0;entryDy=0;strokeColor=#0000FF;" edge="1" parent="1" source="Zgq0WJwzbyDcNf6zJyFv-1" target="F4nUvJOktsHatZKrtvTg-3">
          <mxGeometry relative="1" as="geometry" />
        </mxCell>
        <mxCell id="Zgq0WJwzbyDcNf6zJyFv-1" value="ExpressRouteAdapter" style="rounded=0;whiteSpace=wrap;html=1;strokeColor=#3333FF;strokeWidth=2;shadow=1;" vertex="1" parent="1">
          <mxGeometry x="-131.75" y="80" width="160" height="60" as="geometry" />
        </mxCell>
        <mxCell id="Zgq0WJwzbyDcNf6zJyFv-6" value="Controller" style="rounded=1;whiteSpace=wrap;html=1;dashed=1;strokeColor=#00CC00;shadow=1;strokeWidth=2;" vertex="1" parent="1">
          <mxGeometry x="480" y="270" width="120" height="60" as="geometry" />
        </mxCell>
        <mxCell id="Zgq0WJwzbyDcNf6zJyFv-14" value="Validator" style="rounded=0;whiteSpace=wrap;html=1;fillColor=#d0cee2;strokeColor=#56517e;strokeWidth=2;shadow=1;" vertex="1" parent="1">
          <mxGeometry x="-247" y="481" width="80" height="60" as="geometry" />
        </mxCell>
        <mxCell id="Zgq0WJwzbyDcNf6zJyFv-17" style="edgeStyle=orthogonalEdgeStyle;rounded=0;orthogonalLoop=1;jettySize=auto;html=1;entryX=1;entryY=0.5;entryDx=0;entryDy=0;strokeColor=#007FFF;" edge="1" parent="1" source="Zgq0WJwzbyDcNf6zJyFv-15" target="Zgq0WJwzbyDcNf6zJyFv-14">
          <mxGeometry relative="1" as="geometry" />
        </mxCell>
        <mxCell id="Zgq0WJwzbyDcNf6zJyFv-15" value="EmailValidatorAdapter" style="rounded=0;whiteSpace=wrap;html=1;strokeColor=#0066CC;shadow=1;strokeWidth=2;" vertex="1" parent="1">
          <mxGeometry x="-117" y="481" width="130" height="60" as="geometry" />
        </mxCell>
        <mxCell id="Zgq0WJwzbyDcNf6zJyFv-18" value="EmailValidator" style="rounded=1;whiteSpace=wrap;html=1;dashed=1;strokeColor=#00CC00;shadow=1;strokeWidth=2;" vertex="1" parent="1">
          <mxGeometry x="160" y="180" width="120" height="60" as="geometry" />
        </mxCell>
        <mxCell id="Zgq0WJwzbyDcNf6zJyFv-31" style="edgeStyle=orthogonalEdgeStyle;rounded=0;orthogonalLoop=1;jettySize=auto;html=1;entryX=0.5;entryY=0;entryDx=0;entryDy=0;exitX=0.5;exitY=1;exitDx=0;exitDy=0;strokeColor=#FFB570;" edge="1" parent="1" source="Zgq0WJwzbyDcNf6zJyFv-30" target="Zgq0WJwzbyDcNf6zJyFv-24">
          <mxGeometry relative="1" as="geometry">
            <Array as="points">
              <mxPoint x="380" y="130" />
              <mxPoint x="634" y="130" />
              <mxPoint x="634" y="70" />
              <mxPoint x="888" y="70" />
            </Array>
          </mxGeometry>
        </mxCell>
        <mxCell id="Zgq0WJwzbyDcNf6zJyFv-41" style="edgeStyle=orthogonalEdgeStyle;rounded=0;orthogonalLoop=1;jettySize=auto;html=1;entryX=0.5;entryY=1;entryDx=0;entryDy=0;strokeColor=#FFB570;" edge="1" parent="1" source="Zgq0WJwzbyDcNf6zJyFv-30" target="Zgq0WJwzbyDcNf6zJyFv-39">
          <mxGeometry relative="1" as="geometry" />
        </mxCell>
        <mxCell id="Zgq0WJwzbyDcNf6zJyFv-48" style="edgeStyle=orthogonalEdgeStyle;rounded=0;orthogonalLoop=1;jettySize=auto;html=1;entryX=0.5;entryY=1;entryDx=0;entryDy=0;strokeColor=#FFB570;" edge="1" parent="1" source="Zgq0WJwzbyDcNf6zJyFv-30" target="Zgq0WJwzbyDcNf6zJyFv-45">
          <mxGeometry relative="1" as="geometry" />
        </mxCell>
        <mxCell id="Zgq0WJwzbyDcNf6zJyFv-77" style="edgeStyle=orthogonalEdgeStyle;rounded=0;orthogonalLoop=1;jettySize=auto;html=1;entryX=0.5;entryY=1;entryDx=0;entryDy=0;strokeColor=#FFB570;" edge="1" parent="1" source="Zgq0WJwzbyDcNf6zJyFv-30" target="Zgq0WJwzbyDcNf6zJyFv-76">
          <mxGeometry relative="1" as="geometry" />
        </mxCell>
        <mxCell id="Zgq0WJwzbyDcNf6zJyFv-30" value="DbAddAccount" style="rounded=0;whiteSpace=wrap;html=1;strokeColor=#FFB570;shadow=1;strokeWidth=2;" vertex="1" parent="1">
          <mxGeometry x="320" y="50" width="120" height="60" as="geometry" />
        </mxCell>
        <mxCell id="Zgq0WJwzbyDcNf6zJyFv-32" value="BCrypt" style="rounded=0;whiteSpace=wrap;html=1;fillColor=#d0cee2;strokeColor=#56517e;strokeWidth=2;shadow=1;" vertex="1" parent="1">
          <mxGeometry x="-73.5" y="-240" width="90" height="60" as="geometry" />
        </mxCell>
        <mxCell id="Zgq0WJwzbyDcNf6zJyFv-38" style="edgeStyle=orthogonalEdgeStyle;rounded=0;orthogonalLoop=1;jettySize=auto;html=1;" edge="1" parent="1" source="Zgq0WJwzbyDcNf6zJyFv-36" target="Zgq0WJwzbyDcNf6zJyFv-32">
          <mxGeometry relative="1" as="geometry" />
        </mxCell>
        <mxCell id="Zgq0WJwzbyDcNf6zJyFv-43" style="edgeStyle=orthogonalEdgeStyle;rounded=0;orthogonalLoop=1;jettySize=auto;html=1;entryX=0.5;entryY=0;entryDx=0;entryDy=0;strokeColor=#666666;" edge="1" parent="1" source="Zgq0WJwzbyDcNf6zJyFv-36" target="Zgq0WJwzbyDcNf6zJyFv-39">
          <mxGeometry relative="1" as="geometry" />
        </mxCell>
        <mxCell id="Zgq0WJwzbyDcNf6zJyFv-36" value="EmailValidatorAdapter" style="rounded=0;whiteSpace=wrap;html=1;strokeColor=#808080;glass=0;shadow=1;strokeWidth=2;gradientColor=none;" vertex="1" parent="1">
          <mxGeometry x="100" y="-240" width="130" height="60" as="geometry" />
        </mxCell>
        <mxCell id="Zgq0WJwzbyDcNf6zJyFv-39" value="Encrypter" style="rounded=1;whiteSpace=wrap;html=1;dashed=1;strokeColor=#FFB570;shadow=1;strokeWidth=2;" vertex="1" parent="1">
          <mxGeometry x="155" y="-10" width="120" height="60" as="geometry" />
        </mxCell>
        <mxCell id="Zgq0WJwzbyDcNf6zJyFv-47" style="edgeStyle=orthogonalEdgeStyle;rounded=0;orthogonalLoop=1;jettySize=auto;html=1;entryX=0.5;entryY=0;entryDx=0;entryDy=0;strokeColor=#666666;" edge="1" parent="1" source="Zgq0WJwzbyDcNf6zJyFv-44" target="Zgq0WJwzbyDcNf6zJyFv-45">
          <mxGeometry relative="1" as="geometry" />
        </mxCell>
        <mxCell id="Zgq0WJwzbyDcNf6zJyFv-50" style="edgeStyle=orthogonalEdgeStyle;rounded=0;orthogonalLoop=1;jettySize=auto;html=1;entryX=0.5;entryY=1;entryDx=0;entryDy=0;exitX=0.5;exitY=0;exitDx=0;exitDy=0;strokeColor=#666666;" edge="1" parent="1" source="Zgq0WJwzbyDcNf6zJyFv-44" target="Zgq0WJwzbyDcNf6zJyFv-46">
          <mxGeometry relative="1" as="geometry" />
        </mxCell>
        <mxCell id="Zgq0WJwzbyDcNf6zJyFv-44" value="AddUserMongoRepo" style="rounded=0;whiteSpace=wrap;html=1;strokeColor=#808080;shadow=1;strokeWidth=2;gradientColor=none;" vertex="1" parent="1">
          <mxGeometry x="520" y="-240" width="130" height="60" as="geometry" />
        </mxCell>
        <mxCell id="Zgq0WJwzbyDcNf6zJyFv-45" value="AddUserRepo" style="rounded=1;whiteSpace=wrap;html=1;dashed=1;strokeColor=#FFB570;shadow=1;strokeWidth=2;" vertex="1" parent="1">
          <mxGeometry x="455" y="-20" width="120" height="60" as="geometry" />
        </mxCell>
        <mxCell id="Zgq0WJwzbyDcNf6zJyFv-46" value="MongoDb" style="rounded=0;whiteSpace=wrap;html=1;fillColor=#d0cee2;strokeColor=#56517e;strokeWidth=2;shadow=1;" vertex="1" parent="1">
          <mxGeometry x="349" y="-390" width="130" height="60" as="geometry" />
        </mxCell>
        <mxCell id="Zgq0WJwzbyDcNf6zJyFv-49" value="" style="group" vertex="1" connectable="0" parent="1">
          <mxGeometry x="-480" y="400" width="120" height="140" as="geometry" />
        </mxCell>
        <mxCell id="Zgq0WJwzbyDcNf6zJyFv-7" value="Interface" style="rounded=1;whiteSpace=wrap;html=1;dashed=1;" vertex="1" parent="Zgq0WJwzbyDcNf6zJyFv-49">
          <mxGeometry width="120" height="60" as="geometry" />
        </mxCell>
        <mxCell id="Zgq0WJwzbyDcNf6zJyFv-8" value="Class" style="rounded=0;whiteSpace=wrap;html=1;" vertex="1" parent="Zgq0WJwzbyDcNf6zJyFv-49">
          <mxGeometry y="80" width="120" height="60" as="geometry" />
        </mxCell>
        <mxCell id="Zgq0WJwzbyDcNf6zJyFv-13" value="Class" style="rounded=0;whiteSpace=wrap;html=1;" vertex="1" parent="Zgq0WJwzbyDcNf6zJyFv-49">
          <mxGeometry y="80" width="120" height="60" as="geometry" />
        </mxCell>
        <mxCell id="Zgq0WJwzbyDcNf6zJyFv-56" value="SignUpComposer" style="rounded=0;whiteSpace=wrap;html=1;strokeColor=#3333FF;strokeWidth=2;shadow=1;" vertex="1" parent="1">
          <mxGeometry x="-131.75" y="-10" width="160" height="60" as="geometry" />
        </mxCell>
        <mxCell id="Zgq0WJwzbyDcNf6zJyFv-60" style="edgeStyle=orthogonalEdgeStyle;rounded=0;orthogonalLoop=1;jettySize=auto;html=1;entryX=0.5;entryY=1;entryDx=0;entryDy=0;strokeColor=#0000FF;" edge="1" parent="1" source="Zgq0WJwzbyDcNf6zJyFv-59" target="Zgq0WJwzbyDcNf6zJyFv-1">
          <mxGeometry relative="1" as="geometry" />
        </mxCell>
        <mxCell id="Zgq0WJwzbyDcNf6zJyFv-59" value="SignUpRouter" style="rounded=0;whiteSpace=wrap;html=1;strokeColor=#3333FF;strokeWidth=2;shadow=1;" vertex="1" parent="1">
          <mxGeometry x="-131.75" y="180" width="160" height="60" as="geometry" />
        </mxCell>
        <mxCell id="Zgq0WJwzbyDcNf6zJyFv-62" style="edgeStyle=orthogonalEdgeStyle;rounded=0;orthogonalLoop=1;jettySize=auto;html=1;entryX=0.5;entryY=1;entryDx=0;entryDy=0;strokeColor=#0000FF;" edge="1" parent="1" source="Zgq0WJwzbyDcNf6zJyFv-61" target="Zgq0WJwzbyDcNf6zJyFv-59">
          <mxGeometry relative="1" as="geometry" />
        </mxCell>
        <mxCell id="Zgq0WJwzbyDcNf6zJyFv-61" value="App" style="rounded=0;whiteSpace=wrap;html=1;strokeColor=#3333FF;strokeWidth=2;shadow=1;" vertex="1" parent="1">
          <mxGeometry x="-131.75" y="270" width="160" height="60" as="geometry" />
        </mxCell>
        <mxCell id="Zgq0WJwzbyDcNf6zJyFv-69" value="HttpResponse" style="rounded=1;whiteSpace=wrap;html=1;dashed=1;strokeColor=#00CC00;shadow=1;strokeWidth=2;" vertex="1" parent="1">
          <mxGeometry x="320" y="270" width="120" height="60" as="geometry" />
        </mxCell>
        <mxCell id="Zgq0WJwzbyDcNf6zJyFv-71" value="HttpRequest" style="rounded=1;whiteSpace=wrap;html=1;dashed=1;strokeColor=#00CC00;shadow=1;strokeWidth=2;" vertex="1" parent="1">
          <mxGeometry x="160" y="270" width="120" height="60" as="geometry" />
        </mxCell>
        <mxCell id="Zgq0WJwzbyDcNf6zJyFv-75" style="edgeStyle=orthogonalEdgeStyle;rounded=0;orthogonalLoop=1;jettySize=auto;html=1;entryX=0.25;entryY=1;entryDx=0;entryDy=0;strokeColor=#666666;" edge="1" parent="1" source="Zgq0WJwzbyDcNf6zJyFv-73" target="Zgq0WJwzbyDcNf6zJyFv-46">
          <mxGeometry relative="1" as="geometry" />
        </mxCell>
        <mxCell id="Zgq0WJwzbyDcNf6zJyFv-79" style="edgeStyle=orthogonalEdgeStyle;rounded=0;orthogonalLoop=1;jettySize=auto;html=1;entryX=0.5;entryY=0;entryDx=0;entryDy=0;strokeColor=#666666;" edge="1" parent="1" source="Zgq0WJwzbyDcNf6zJyFv-73" target="Zgq0WJwzbyDcNf6zJyFv-76">
          <mxGeometry relative="1" as="geometry" />
        </mxCell>
        <mxCell id="Zgq0WJwzbyDcNf6zJyFv-73" value="LoadUserByEmailMongoRepo" style="rounded=0;whiteSpace=wrap;html=1;strokeColor=#808080;shadow=1;strokeWidth=2;gradientColor=none;" vertex="1" parent="1">
          <mxGeometry x="270" y="-240" width="200" height="60" as="geometry" />
        </mxCell>
        <mxCell id="Zgq0WJwzbyDcNf6zJyFv-76" value="LoadUserByEmail" style="rounded=1;whiteSpace=wrap;html=1;dashed=1;strokeColor=#FFB570;shadow=1;strokeWidth=2;" vertex="1" parent="1">
          <mxGeometry x="310" y="-55" width="120" height="60" as="geometry" />
        </mxCell>
      </root>
    </mxGraphModel>
  </diagram>
</mxfile>
